<svg xmlns="http://www.w3.org/2000/svg" xmlns:xlink="http://www.w3.org/1999/xlink" width="80pt" height="80pt" version="1.1" viewBox="0 0 80 80"><g id="surface1"><path fill="#FFF" fill-opacity="1" fill-rule="nonzero" stroke="none" d="M 5 7 L 75 7 L 75 73 L 5 73 Z"/><path fill="#4788C7" fill-opacity="1" fill-rule="nonzero" stroke="none" d="M 74 8 L 74 72 L 6 72 L 6 8 L 74 8 M 76 6 L 4 6 L 4 74 L 76 74 Z"/><path fill="#98CCFD" fill-opacity="1" fill-rule="nonzero" stroke="none" d="M 6 8 L 74 8 L 74 18 L 6 18 Z"/><path fill="none" stroke="#4788C7" stroke-linecap="round" stroke-linejoin="miter" stroke-miterlimit="4" stroke-opacity="1" stroke-width="1" d="M 14.5 26.529297 L 8.75 22.029297 L 14.5 17.529297" transform="matrix(2,0,0,2,0,0)"/><path fill="none" stroke="#4788C7" stroke-linecap="round" stroke-linejoin="miter" stroke-miterlimit="4" stroke-opacity="1" stroke-width="1" d="M 22.5 15.5 L 17.5 28.5" transform="matrix(2,0,0,2,0,0)"/><path fill="none" stroke="#4788C7" stroke-linecap="round" stroke-linejoin="miter" stroke-miterlimit="4" stroke-opacity="1" stroke-width="1" d="M 25.5 26.529297 L 31.25 22.029297 L 25.5 17.529297" transform="matrix(2,0,0,2,0,0)"/></g></svg>